<svg width="63" height="63" viewBox="0 0 63 63" fill="none" xmlns="http://www.w3.org/2000/svg">
<path d="M41.8722 10.6924H47.0255C48.3923 10.6924 49.7031 11.2353 50.6695 12.2018C51.6359 13.1682 52.1789 14.479 52.1789 15.8457V51.9191C52.1789 53.2859 51.6359 54.5967 50.6695 55.5631C49.7031 56.5295 48.3923 57.0725 47.0255 57.0725H16.1055C14.7387 57.0725 13.428 56.5295 12.4615 55.5631C11.4951 54.5967 10.9521 53.2859 10.9521 51.9191V15.8457C10.9521 14.479 11.4951 13.1682 12.4615 12.2018C13.428 11.2353 14.7387 10.6924 16.1055 10.6924H21.2588M23.8355 5.53906H39.2955C40.7186 5.53906 41.8722 6.69268 41.8722 8.11573V13.2691C41.8722 14.6921 40.7186 15.8457 39.2955 15.8457H23.8355C22.4124 15.8457 21.2588 14.6921 21.2588 13.2691V8.11573C21.2588 6.69268 22.4124 5.53906 23.8355 5.53906Z" stroke="#E0ECF3" stroke-width="5" stroke-linecap="round" stroke-linejoin="round"/>
</svg>
